<svg xmlns="http://www.w3.org/2000/svg" version="1.1" width="412.7mm" height="212.7mm" viewBox = " 0 0 1462.3240369999999 753.6620369999999" >
<!-- Front--> 
<g transform="translate(22.5000185, 22.5000185) " > 
<polygon style="stroke:#000000; fill:none; stroke-width:0.90000074" points="0, 0 53.14965, 0 53.14965, 14.17324 106.2993, 14.17324 106.2993, 0 141.73239999999998, 0 141.73239999999998, 14.17324 177.1655, 14.17324 177.1655, 0 212.59859999999998, 0 212.59859999999998, 14.17324 248.0317, 14.17324 248.0317, 0 283.46479999999997, 0 283.46479999999997, 14.17324 318.8979, 14.17324 318.8979, 0 354.33099999999996, 0 354.33099999999996, 14.17324 389.7641, 14.17324 389.7641, 0 425.19719999999995, 0 425.19719999999995, 14.17324 478.3468499999999, 14.17324 478.3468499999999, 0 531.4965, 0 531.4965, 44.291375 517.32326, 44.291375 517.32326, 88.58275 531.4965, 88.58275 531.4965, 124.01585 517.32326, 124.01585 517.32326, 159.44895 531.4965, 159.44895 531.4965, 194.88205 517.32326, 194.88205 517.32326, 230.31515 531.4965, 230.31515 531.4965, 265.74825 517.32326, 265.74825 517.32326, 310.039625 531.4965, 310.039625 531.4965, 354.331 478.3468499999999, 354.331 478.3468499999999, 340.15776 425.19719999999995, 340.15776 425.19719999999995, 354.331 389.7641, 354.331 389.7641, 340.15776 354.33099999999996, 340.15776 354.33099999999996, 354.331 318.8979, 354.331 318.8979, 340.15776 283.46479999999997, 340.15776 283.46479999999997, 354.331 248.0317, 354.331 248.0317, 340.15776 212.59859999999998, 340.15776 212.59859999999998, 354.331 177.1655, 354.331 177.1655, 340.15776 141.73239999999998, 340.15776 141.73239999999998, 354.331 106.2993, 354.331 106.2993, 340.15776 53.14965, 340.15776 53.14965, 354.331 0, 354.331 0, 310.039625 14.17324, 310.039625 14.17324, 265.74825 0, 265.74825 0, 230.31515 14.17324, 230.31515 14.17324, 194.88205 0, 194.88205 0, 159.44895 14.17324, 159.44895 14.17324, 124.01585 0, 124.01585 0, 88.58275 14.17324, 88.58275 14.17324, 44.291375 0, 44.291375 "/> 
</g>
<!-- Back--> 
<g transform="translate(553.9965185, 22.5000185) " > 
<polygon style="stroke:#000000; fill:none; stroke-width:0.90000074" points="0, 0 53.14965, 0 53.14965, 14.17324 106.2993, 14.17324 106.2993, 0 141.73239999999998, 0 141.73239999999998, 14.17324 177.1655, 14.17324 177.1655, 0 212.59859999999998, 0 212.59859999999998, 14.17324 248.0317, 14.17324 248.0317, 0 283.46479999999997, 0 283.46479999999997, 14.17324 318.8979, 14.17324 318.8979, 0 354.33099999999996, 0 354.33099999999996, 14.17324 389.7641, 14.17324 389.7641, 0 425.19719999999995, 0 425.19719999999995, 14.17324 478.3468499999999, 14.17324 478.3468499999999, 0 531.4965, 0 531.4965, 44.291375 517.32326, 44.291375 517.32326, 88.58275 531.4965, 88.58275 531.4965, 124.01585 517.32326, 124.01585 517.32326, 159.44895 531.4965, 159.44895 531.4965, 194.88205 517.32326, 194.88205 517.32326, 230.31515 531.4965, 230.31515 531.4965, 265.74825 517.32326, 265.74825 517.32326, 310.039625 531.4965, 310.039625 531.4965, 354.331 478.3468499999999, 354.331 478.3468499999999, 340.15776 425.19719999999995, 340.15776 425.19719999999995, 354.331 389.7641, 354.331 389.7641, 340.15776 354.33099999999996, 340.15776 354.33099999999996, 354.331 318.8979, 354.331 318.8979, 340.15776 283.46479999999997, 340.15776 283.46479999999997, 354.331 248.0317, 354.331 248.0317, 340.15776 212.59859999999998, 340.15776 212.59859999999998, 354.331 177.1655, 354.331 177.1655, 340.15776 141.73239999999998, 340.15776 141.73239999999998, 354.331 106.2993, 354.331 106.2993, 340.15776 53.14965, 340.15776 53.14965, 354.331 0, 354.331 0, 310.039625 14.17324, 310.039625 14.17324, 265.74825 0, 265.74825 0, 230.31515 14.17324, 230.31515 14.17324, 194.88205 0, 194.88205 0, 159.44895 14.17324, 159.44895 14.17324, 124.01585 0, 124.01585 0, 88.58275 14.17324, 88.58275 14.17324, 44.291375 0, 44.291375 "/> 
</g>
<!-- Left--> 
<g transform="translate(1085.4930185, 22.5000185) " > 
<polygon style="stroke:#000000; fill:none; stroke-width:0.90000074" points="14.17324, 0 44.291375, 0 44.291375, 14.17324 88.58275, 14.17324 88.58275, 0 124.01585, 0 124.01585, 14.17324 159.44895, 14.17324 159.44895, 0 194.88205, 0 194.88205, 14.17324 230.31515, 14.17324 230.31515, 0 265.74825, 0 265.74825, 14.17324 310.039625, 14.17324 310.039625, 0 340.15776, 0 340.15776, 44.291375 354.331, 44.291375 354.331, 88.58275 340.15776, 88.58275 340.15776, 124.01585 354.331, 124.01585 354.331, 159.44895 340.15776, 159.44895 340.15776, 194.88205 354.331, 194.88205 354.331, 230.31515 340.15776, 230.31515 340.15776, 265.74825 354.331, 265.74825 354.331, 310.039625 340.15776, 310.039625 340.15776, 354.331 310.039625, 354.331 310.039625, 340.15776 265.74825, 340.15776 265.74825, 354.331 230.31515, 354.331 230.31515, 340.15776 194.88205, 340.15776 194.88205, 354.331 159.44895, 354.331 159.44895, 340.15776 124.01585, 340.15776 124.01585, 354.331 88.58275, 354.331 88.58275, 340.15776 44.291375, 340.15776 44.291375, 354.331 14.17324, 354.331 14.17324, 310.039625 0, 310.039625 0, 265.74825 14.17324, 265.74825 14.17324, 230.31515 0, 230.31515 0, 194.88205 14.17324, 194.88205 14.17324, 159.44895 0, 159.44895 0, 124.01585 14.17324, 124.01585 14.17324, 88.58275 0, 88.58275 0, 44.291375 14.17324, 44.291375 "/> 
</g>
<!-- Right--> 
<g transform="translate(1085.4930185, 376.83101849999997) " > 
<polygon style="stroke:#000000; fill:none; stroke-width:0.90000074" points="14.17324, 0 44.291375, 0 44.291375, 14.17324 88.58275, 14.17324 88.58275, 0 124.01585, 0 124.01585, 14.17324 159.44895, 14.17324 159.44895, 0 194.88205, 0 194.88205, 14.17324 230.31515, 14.17324 230.31515, 0 265.74825, 0 265.74825, 14.17324 310.039625, 14.17324 310.039625, 0 340.15776, 0 340.15776, 44.291375 354.331, 44.291375 354.331, 88.58275 340.15776, 88.58275 340.15776, 124.01585 354.331, 124.01585 354.331, 159.44895 340.15776, 159.44895 340.15776, 194.88205 354.331, 194.88205 354.331, 230.31515 340.15776, 230.31515 340.15776, 265.74825 354.331, 265.74825 354.331, 310.039625 340.15776, 310.039625 340.15776, 354.331 310.039625, 354.331 310.039625, 340.15776 265.74825, 340.15776 265.74825, 354.331 230.31515, 354.331 230.31515, 340.15776 194.88205, 340.15776 194.88205, 354.331 159.44895, 354.331 159.44895, 340.15776 124.01585, 340.15776 124.01585, 354.331 88.58275, 354.331 88.58275, 340.15776 44.291375, 340.15776 44.291375, 354.331 14.17324, 354.331 14.17324, 310.039625 0, 310.039625 0, 265.74825 14.17324, 265.74825 14.17324, 230.31515 0, 230.31515 0, 194.88205 14.17324, 194.88205 14.17324, 159.44895 0, 159.44895 0, 124.01585 14.17324, 124.01585 14.17324, 88.58275 0, 88.58275 0, 44.291375 14.17324, 44.291375 "/> 
</g>
<!-- Top--> 
<g transform="translate(22.5000185, 376.83101849999997) " > 
<polygon style="stroke:#000000; fill:none; stroke-width:0.90000074" points="14.17324, 14.17324 53.14965, 14.17324 53.14965, 0 106.2993, 0 106.2993, 14.17324 141.73239999999998, 14.17324 141.73239999999998, 0 177.1655, 0 177.1655, 14.17324 212.59859999999998, 14.17324 212.59859999999998, 0 248.0317, 0 248.0317, 14.17324 283.46479999999997, 14.17324 283.46479999999997, 0 318.8979, 0 318.8979, 14.17324 354.33099999999996, 14.17324 354.33099999999996, 0 389.7641, 0 389.7641, 14.17324 425.19719999999995, 14.17324 425.19719999999995, 0 478.3468499999999, 0 478.3468499999999, 14.17324 517.32326, 14.17324 517.32326, 44.291375 531.4965, 44.291375 531.4965, 88.58275 517.32326, 88.58275 517.32326, 124.01585 531.4965, 124.01585 531.4965, 159.44895 517.32326, 159.44895 517.32326, 194.88205 531.4965, 194.88205 531.4965, 230.31515 517.32326, 230.31515 517.32326, 265.74825 531.4965, 265.74825 531.4965, 310.039625 517.32326, 310.039625 517.32326, 340.15776 478.3468499999999, 340.15776 478.3468499999999, 354.331 425.19719999999995, 354.331 425.19719999999995, 340.15776 389.7641, 340.15776 389.7641, 354.331 354.33099999999996, 354.331 354.33099999999996, 340.15776 318.8979, 340.15776 318.8979, 354.331 283.46479999999997, 354.331 283.46479999999997, 340.15776 248.0317, 340.15776 248.0317, 354.331 212.59859999999998, 354.331 212.59859999999998, 340.15776 177.1655, 340.15776 177.1655, 354.331 141.73239999999998, 354.331 141.73239999999998, 340.15776 106.2993, 340.15776 106.2993, 354.331 53.14965, 354.331 53.14965, 340.15776 14.17324, 340.15776 14.17324, 310.039625 0, 310.039625 0, 265.74825 14.17324, 265.74825 14.17324, 230.31515 0, 230.31515 0, 194.88205 14.17324, 194.88205 14.17324, 159.44895 0, 159.44895 0, 124.01585 14.17324, 124.01585 14.17324, 88.58275 0, 88.58275 0, 44.291375 14.17324, 44.291375 "/> 
</g>
<!-- Bottom--> 
<g transform="translate(553.9965185, 376.83101849999997) " > 
<polygon style="stroke:#000000; fill:none; stroke-width:0.90000074" points="14.17324, 14.17324 53.14965, 14.17324 53.14965, 0 106.2993, 0 106.2993, 14.17324 141.73239999999998, 14.17324 141.73239999999998, 0 177.1655, 0 177.1655, 14.17324 212.59859999999998, 14.17324 212.59859999999998, 0 248.0317, 0 248.0317, 14.17324 283.46479999999997, 14.17324 283.46479999999997, 0 318.8979, 0 318.8979, 14.17324 354.33099999999996, 14.17324 354.33099999999996, 0 389.7641, 0 389.7641, 14.17324 425.19719999999995, 14.17324 425.19719999999995, 0 478.3468499999999, 0 478.3468499999999, 14.17324 517.32326, 14.17324 517.32326, 44.291375 531.4965, 44.291375 531.4965, 88.58275 517.32326, 88.58275 517.32326, 124.01585 531.4965, 124.01585 531.4965, 159.44895 517.32326, 159.44895 517.32326, 194.88205 531.4965, 194.88205 531.4965, 230.31515 517.32326, 230.31515 517.32326, 265.74825 531.4965, 265.74825 531.4965, 310.039625 517.32326, 310.039625 517.32326, 340.15776 478.3468499999999, 340.15776 478.3468499999999, 354.331 425.19719999999995, 354.331 425.19719999999995, 340.15776 389.7641, 340.15776 389.7641, 354.331 354.33099999999996, 354.331 354.33099999999996, 340.15776 318.8979, 340.15776 318.8979, 354.331 283.46479999999997, 354.331 283.46479999999997, 340.15776 248.0317, 340.15776 248.0317, 354.331 212.59859999999998, 354.331 212.59859999999998, 340.15776 177.1655, 340.15776 177.1655, 354.331 141.73239999999998, 354.331 141.73239999999998, 340.15776 106.2993, 340.15776 106.2993, 354.331 53.14965, 354.331 53.14965, 340.15776 14.17324, 340.15776 14.17324, 310.039625 0, 310.039625 0, 265.74825 14.17324, 265.74825 14.17324, 230.31515 0, 230.31515 0, 194.88205 14.17324, 194.88205 14.17324, 159.44895 0, 159.44895 0, 124.01585 14.17324, 124.01585 14.17324, 88.58275 0, 88.58275 0, 44.291375 14.17324, 44.291375 "/> 
</g></svg>